<?xml version="1.0" encoding="iso-8859-1"?>
<!-- Uploaded to: SVG Repo, www.svgrepo.com, Generator: SVG Repo Mixer Tools -->
<svg version="1.1" id="Layer_1" xmlns="http://www.w3.org/2000/svg" xmlns:xlink="http://www.w3.org/1999/xlink" 
	 viewBox="0 0 509.287 509.287" xml:space="preserve">
<circle style="fill:#6EB1E1;" cx="254.644" cy="254.644" r="254.644"/>
<g>
	<path style="fill:#DEDEDF;" d="M49.844,373.319c0,10.85,8.816,19.666,19.666,19.666h369.589c10.85,0,19.666-8.816,19.666-19.666
		v-17.293H49.844V373.319z"/>
	<path style="fill:#DEDEDF;" d="M459.444,141.732c0-10.85-8.816-19.666-19.666-19.666H69.849c-10.85,0-19.666,8.816-19.666,19.666
		v25.43h409.261V141.732z"/>
</g>
<rect x="49.844" y="167.163" style="fill:#646B79;" width="409.261" height="188.864"/>
<circle style="fill:#393D47;" cx="254.644" cy="257.695" r="111.555"/>
<circle style="fill:#333842;" cx="254.644" cy="257.695" r="90.532"/>
<circle style="fill:#646B79;" cx="254.644" cy="257.695" r="64.424"/>
<g>
	<circle style="fill:#4485C5;" cx="254.644" cy="257.695" r="50.522"/>
	<rect x="366.199" y="131.56" style="fill:#4485C5;" width="50.861" height="26.109"/>
</g>
<path style="fill:#414753;" d="M130.204,102.4H86.803c-4.069,0-7.46,3.391-7.46,7.46v12.207h58.321V109.86
	C137.664,105.452,134.612,102.4,130.204,102.4z"/>
<rect x="100.026" y="89.854" style="fill:#646B79;" width="17.293" height="12.207"/>
<path style="fill:#F1F3F7;" d="M306.861,90.532c-1.695-5.086-6.442-8.477-11.528-8.477h-81.378c-5.425,0-9.833,3.391-11.528,8.477
	l-10.85,31.534h126.135L306.861,90.532z"/>
<circle style="fill:#FBD303;" cx="116.302" cy="189.203" r="7.799"/>
</svg>